<?xml version="1.0" encoding="UTF-8"?>
<svg enable-background="new 0 0 666 107.1" version="1.1" viewBox="0 0 666 107.1" xml:space="preserve" xmlns="http://www.w3.org/2000/svg" xmlns:xlink="http://www.w3.org/1999/xlink">
<style type="text/css">
	.st0{clip-path:url(#c);fill:#120F0D;}
	.st1{fill:#120F0D;}
	.st2{clip-path:url(#a);fill:#120F0D;}
</style>

	<defs>
		<rect id="d" width="666" height="107.1"/>
	</defs>
	<clipPath id="c">
		<use xlink:href="#d"/>
	</clipPath>
	<path class="st0" d="m347.89 8.24s-6.4 2.55-13.84 10.75c-7.47 8.23-11.78 17.43-8.57 19.87 1.23 0.93 4.07 1.09 9.23-3.55 4.03-3.61 8.13-8.35 10.91-15.13 3.33-8.12 2.27-11.85 2.27-11.94m40.73 14.76c-8.27-4.24-14.31-9.42-20.6-12.65-6-3.08-9.88-4.37-14.73-3.72-0.8 0.11-2 0.5-2 0.5s2.5 8.53-7.44 22.87c-10.07 14.52-19.2 14.44-21.8 10.43-2.72-4.21 0.79-12.8 6.65-20.44 6.14-7.99 16.93-14.62 16.93-14.62s-3.44-2.1-11.89 2.69c-8.23 4.65-22.44 15.75-35.58 34.47-13.13 18.72-15.77 29.02-17.66 37.13-1.9 8.11-0.17 16.79 8.82 16.79 9 0.01 19.46-13.71 22.41-18.48 5.49-8.88 9.07-22.5 1.6-20.63-3.68 0.92-6.66 5-8.54 8.92-1.93 4.03-2.71 7.88-2.71 7.88s-3.11 1.11-7.29 4.24c-4.18 3.12-6.91 6.11-6.91 6.11s0.03-6.48 5.2-16.97 14.65-15.28 20.02-15.73c4.84-0.39 11.14 3.72 5.8 18.89-5.33 15.17-21.08 33.57-37.63 33.8-15.27 0.21-25.26-19.28-4.01-53.27 23.51-37.6 51.11-49.13 60.07-50.41s11.87 2.67 11.87 2.67 7.51-3.46 17.03-2.81c10.94 0.74 19.4 8.48 30.56 13.92-2.9 2.79-5.67 5.69-8.17 8.42m49.14-12.65c-7.58 4.86-18.07 9.27-28.15 8.3-2.55 2.64-5.28 5.69-8.02 9.02 17.48 3.46 32.79-7.37 40.93-16.59 5.09-5.75 7.6-10.89 7.6-10.89s-4.86 5.34-12.36 10.16m-23.27 49.24c0.22-0.39 0.32-0.73 0.32-0.73s-0.2-1.47-1.6-1.53c-1.66-0.08-3.94 0.24-9.89 6.83-5.93 6.56-9.53 12.26-12.66 17.96-3.41 6.23-4.79 10.87-2.83 12.07 0.55 0.34 1.38 0.38 2.06 0.21 1.33-0.32 2.83-1.56 5.12-4.21 1.07-1.24 2.26-3 3.68-4.95 3.94-5.36 13.84-22.24 15.8-25.65m-61.86 7.17c0.99-2.6 2.26-7.7-0.37-9.7-2.83-2.13-10.03 2.86-10.07 7.98-0.05 5.24 5.07 7.61 6.3 7.94 0.7 0.19 0.94 0.16 1.28-0.4 0.21-0.37 1.86-3.21 2.86-5.82m-5.45 9.53c-0.19-0.06-2.52-1.13-4.95-3.16-2.42-2.02-3.64-4.33-3.73-4.51-0.1-0.17-0.2-0.04-0.31 0.11s-0.54 0.53-4.4 6.18c-3.85 5.65-9.74 17.29-4.4 19.28 3.42 1.27 9.11-4.72 12.23-8.69 2.88-3.69 5.58-8.38 5.73-8.72 0.16-0.34 0.02-0.42-0.17-0.49m60.56 13.47c-1.45 2.32-3.1 6.77 1.69 4 5.83-3.37 14.14-15.97 14.14-15.97h3.76s-4.96 7.83-11.42 14.98c-5.91 6.55-13.12 12.5-18.2 11.91-5.93-0.69-4.07-8.48-4.07-8.48s-8.52 9.04-14.37 8.39c-7.93-0.88-5.51-10.68-5.51-10.68s-8.97 11.03-15.08 10.67c-9.58-0.55-7.17-12.24-4.51-20.42 1.43-4.39 2.75-7.84 2.75-7.84s-0.95 0.25-2.99 0.55c-1.07 0.15-3.01 0.26-3.01 0.26s-3.99 7.04-7.18 11.27c-3.19 4.24-16.76 18.81-24.74 15.89-7.38-2.7-4.94-14-0.64-22.98 6.27-13.09 23.91-31.9 34.08-29.43 10.55 2.56 0.24 21.8 0.24 21.8s0 0.07 0.11 0.12c0.21 0.08 0.76 0.14 2.03-0.11 2.03-0.39 3.86-1.15 3.86-1.15s10.6-22.2 22.31-36.72 35.07-39.52 44.24-33.47c2.24 1.49 1.22 6.61-1.8 12.83-1.34 0.42-2.72 0.79-4.14 1.08 2.02-3.67 3.36-6.76 3.76-8.92 1.38-7.5-16.14 8.31-28.66 25.33s-20.04 32.43-20.04 32.43 2.52-1.43 6.46-4.6c4.11-3.31 9.77-8.5 15.9-14.84 4.13-4.27 8.99-9.63 13.53-15.62 1.36-0.07 2.69-0.2 3.98-0.41-5.07 6.82-10.4 13.05-14.93 17.64-4.98 5.05-10.4 10.48-15.1 14.44-7.48 6.28-13.24 9.84-13.24 9.84s-10.95 22.08-4.99 23.5c3.5 0.84 10.42-9.81 10.42-9.81s9.02-13.77 14.46-19.96c7.42-8.44 13.81-13.31 20.19-13.41 3.72-0.07 5.91 3.9 5.91 3.9l1.75-2.71 10.77 0.01s-20.11 34.12-21.72 36.69m30.02-79.41c-7.58 4.86-18.07 9.27-28.15 8.3-2.55 2.64-5.28 5.69-8.02 9.02 17.48 3.46 32.79-7.37 40.93-16.59 5.09-5.75 7.6-10.89 7.6-10.89s-4.86 5.34-12.36 10.16m-151.21 16.74-10.24-0.01-5.79 9.36 10.24 0.01 5.79-9.36zm-48.49 32.38c4.36-5.97 16.38-26.9 16.38-26.9s-0.2-1.47-1.6-1.53c-1.66-0.08-4.42 0.48-9.95 7.38-5.53 6.89-9.79 12.39-12.91 18.1-3.42 6.23-4.91 10.63-2.95 11.82 0.55 0.33 1.38 0.38 2.06 0.21 1.28-0.32 2.95-1.6 5.24-4.24 1.08-1.23 2.3-2.89 3.73-4.84m-54.95-28.3c-2.83-2.14-10.03 2.86-10.07 7.97-0.04 5.24 6.5 6.74 7.35 6.78 0 0 0.74 0.2 1.03-0.42 0.18-0.39 1.07-2.03 2.07-4.63 0.99-2.6 2.25-7.7-0.38-9.7m-4.27 18.05c-0.19-0.07-2.9-0.85-5.55-2.55-2.65-1.69-3.87-4.21-3.96-4.39-0.1-0.17-0.21-0.04-0.31 0.11-0.11 0.15-0.68 0.87-4.53 6.52-3.85 5.64-9.56 17.21-4.21 19.19 3.42 1.27 9.17-4.74 12.28-8.71 2.88-3.69 6.32-9.36 6.47-9.69 0.13-0.34-0.01-0.42-0.19-0.48m83.67 3.48h3.75s-18.8 27.17-29.43 25.93c-5.93-0.69-4.17-8.01-4.17-8.01s-8.35 9.75-15.97 7.8c-6.94-1.78-2.46-13.31-2.46-13.31-0.79 0.32-15.8 17.24-26.35 13.18-11.04-4.26-5.31-18.43-3.21-22.69 1.78-3.59 3.75-7.09 3.75-7.09s-1.69 0.48-2.75 0.72c-1.05 0.24-2.65 0.55-2.65 0.55s-5.22 8.49-8.41 12.72c-3.19 4.24-16.76 18.79-24.75 15.89-7.99-2.91-6.01-14.08-1.52-22.96 7.28-14.4 24.56-32.1 34.96-29.44 10.51 2.68 1.81 19.73 1.81 19.73s2.09 0.27 7.1-3.15c7.23-4.92 16.74-18.16 27.05-16.61 4.84 0.73 9.35 5.7 3.18 15.13-1.98 3.03-5.29 5.74-7.83 3.06-1.58-1.65-0.2-4.7 1.46-6.78 2.34-2.95 5.57-2.54 5.57-2.54s1.7-3.91-2.63-3.83c-3.51 0.07-12.39 8.24-17.4 16.5-4.6 7.58-11.56 20.5-4.57 23.32 6.41 2.59 18.61-11.89 24.26-19.48 5.65-7.58 18.51-24.79 29.31-25.48 3.72-0.24 5.93 3.15 5.93 3.15l1.25-1.98 10.78 0.01s-20.34 33.94-21.93 36.51c-1.25 2.01-2.91 6.53 1.69 4 4.62-2.54 14.18-14.85 14.18-14.85m-5.88 54.4c-8.16-5.75-18.11-8.28-27.14-7.92-9.14 0.36-13.24 7.18-13.24 7.18-4.12-7.19-12.26-11.6-24.85-11.5-20.34 0.23-40.53 9.61-56.5 9.6-15.34-0.01-26.51-9.64-26.14-26.75 0.66-30 26.02-57.02 44.97-69.18 10.89-6.99 20.01-9.06 25.98-8.39 4.35 0.48 9.58 5.51 6.28 12.92-4.85 10.85-11.55 9.94-11.3 4.76 0.14-3.37 2.38-5.49 4.07-6.65 1.07-0.74 2.96-0.95 3.95-0.97 0.96-0.81 1.69-6.74-6.11-4.79-7.81 1.95-17.2 9.61-26.16 19.49-8.96 9.87-22.9 28.6-26.35 48.24-1.61 9.11-0.54 25.72 21.04 25.54 18.29-0.15 45.31-12.19 70.12-11.96 9.63 0.09 18.01 2.69 24.54 6.72 6.42 3.95 14.11 9.72 16.84 13.66"/>

<path class="st1" d="m60.38 68.2 21.65 0.01-0.71-4.92-15.29-0.01v-5.96h10.3v-4.95l-10.3-0.01v-5.1l14.93 0.01 0.72-4.92-21.29-0.01-0.01 25.86zm-31.99-0.02h5.63l0.01-11.45 13.21 0.01-0.01 11.45h5.64l0.02-25.85h-5.64v9.37l-13.21-0.01v-9.37h-5.63l-0.02 25.85zm-28.39-20.8 8.62 0.01-0.01 20.78h5.64l0.01-20.79h8.62v-5.06h-22.88v5.06z"/>

	<defs>
		<rect id="b" width="666" height="107.1"/>
	</defs>
	<clipPath id="a">
		<use xlink:href="#b"/>
	</clipPath>
	<path class="st2" d="m666 42.4h-6.21l-6.76 12.09-6.85-12.1h-6.35l10.33 17.28-0.01 8.58h5.64v-8.69l10.21-17.16zm-36.12-0.02-0.01 17.52-12.37-17.53h-5.84l-0.01 25.85h5.49l0.01-17.81 12.55 17.81h5.67l0.01-25.85-5.5 0.01zm-40.75 15.2 3.85-10.23 3.84 10.24-7.69-0.01zm11.66 10.63h5.93l-10.25-25.85h-6.93l-10.29 25.84h5.89l2.15-5.74 11.35 0.01 2.15 5.74zm-30.83-14.45h-7.5v-6.43h7.5c1.12 0 2 0.28 2.62 0.83s0.93 1.34 0.93 2.37-0.31 1.83-0.94 2.38c-0.61 0.57-1.49 0.85-2.61 0.85m0.15-11.41-13.29-0.01-0.01 25.85h5.64l0.01-9.44h7.65c1.96 0 3.63-0.36 4.99-1.07 1.36-0.72 2.39-1.7 3.08-2.94 0.7-1.24 1.04-2.64 1.04-4.2s-0.34-2.96-1.04-4.21c-0.69-1.24-1.72-2.22-3.08-2.92-1.36-0.71-3.03-1.06-4.99-1.06m-20.79-0.02h-7.57l-7.59 17.95-7.74-17.96h-7.57l-0.01 25.85h5.46l0.01-18.49 7.85 18.13h3.77l7.94-18.6-0.01 18.96h5.46v-25.84zm-50.42 21.19c-1.53 0-2.9-0.35-4.11-1.06s-2.16-1.69-2.84-2.95-1.02-2.68-1.02-4.29 0.34-3.04 1.03-4.29c0.68-1.26 1.63-2.24 2.84-2.94 1.2-0.7 2.57-1.06 4.11-1.06s2.9 0.36 4.11 1.06c1.21 0.71 2.16 1.68 2.83 2.95 0.68 1.25 1.02 2.69 1.02 4.29s-0.34 3.03-1.02 4.29-1.63 2.24-2.84 2.94c-1.2 0.72-2.57 1.06-4.11 1.06m0 5.1c2.66 0 5.04-0.57 7.13-1.7 2.1-1.14 3.73-2.72 4.92-4.76 1.18-2.03 1.78-4.34 1.78-6.92 0-2.59-0.59-4.89-1.77-6.93-1.18-2.03-2.82-3.62-4.92-4.76-2.09-1.14-4.47-1.71-7.13-1.71s-5.03 0.57-7.13 1.7c-2.1 1.14-3.74 2.73-4.92 4.76-1.19 2.04-1.78 4.34-1.78 6.93 0 2.58 0.59 4.89 1.78 6.93 1.18 2.04 2.82 3.62 4.91 4.76 2.11 1.13 4.47 1.7 7.13 1.7m-27.14-0.01c2.11 0 4.07-0.34 5.91-1.02 1.83-0.68 3.33-1.7 4.51-3.07l-3.52-3.84c-1.87 1.89-4.12 2.83-6.78 2.83-1.68 0-3.19-0.36-4.54-1.1-1.36-0.73-2.4-1.72-3.16-2.98-0.75-1.26-1.13-2.67-1.13-4.22 0-1.56 0.38-2.96 1.15-4.22 0.76-1.26 1.81-2.25 3.14-2.98s2.82-1.1 4.47-1.1c1.27 0 2.45 0.24 3.54 0.7 1.09 0.47 2.14 1.21 3.14 2.22l3.52-3.91c-1.15-1.34-2.62-2.36-4.43-3.05-1.81-0.7-3.78-1.05-5.91-1.05-2.75 0-5.23 0.58-7.43 1.74s-3.93 2.76-5.17 4.81c-1.25 2.05-1.87 4.33-1.87 6.84s0.62 4.79 1.86 6.84c1.24 2.04 2.97 3.65 5.18 4.81 2.21 1.17 4.72 1.75 7.52 1.75"/>

</svg>
